<svg width="40" height="40" viewBox="0 0 40 40" fill="none" xmlns="http://www.w3.org/2000/svg">
<rect width="40" height="40" rx="20" fill="#43454D"/>
<path d="M20.5 10.3403C18.0265 10.3404 15.6338 11.2207 13.75 12.8235C11.8661 14.4264 10.6141 16.6472 10.2178 19.0888C9.82162 21.5303 10.3071 24.0331 11.5874 26.1495C12.8677 28.2658 14.8592 29.8575 17.2057 30.6398C17.7266 30.731 17.9219 30.4185 17.9219 30.145C17.9219 29.8976 17.9089 29.0773 17.9089 28.2049C15.2917 28.6867 14.6146 27.5669 14.4062 26.981C14.1751 26.4111 13.8086 25.9061 13.3385 25.5096C12.974 25.3143 12.4531 24.8325 13.3255 24.8195C13.6586 24.8557 13.9781 24.9716 14.2569 25.1574C14.5357 25.3433 14.7656 25.5936 14.9271 25.8872C15.0695 26.1431 15.2611 26.3684 15.4908 26.5502C15.7205 26.732 15.9838 26.8666 16.2657 26.9465C16.5475 27.0263 16.8423 27.0497 17.1332 27.0154C17.4241 26.9811 17.7054 26.8898 17.9609 26.7466C18.006 26.217 18.242 25.7219 18.625 25.3534C16.3073 25.093 13.8854 24.1945 13.8854 20.2102C13.8708 19.1749 14.2528 18.1733 14.9531 17.4107C14.6347 16.5109 14.6719 15.5235 15.0573 14.6503C15.0573 14.6503 15.9296 14.3768 17.9219 15.718C19.6263 15.2492 21.4257 15.2492 23.1302 15.718C25.1224 14.3638 25.9948 14.6503 25.9948 14.6503C26.3802 15.5235 26.4175 16.5109 26.099 17.4107C26.8014 18.172 27.1837 19.1745 27.1667 20.2102C27.1667 24.2075 24.7317 25.093 22.4141 25.3534C22.6626 25.6053 22.8541 25.9079 22.9754 26.2404C23.0968 26.5729 23.1451 26.9276 23.1172 27.2805C23.1172 28.6737 23.1041 29.7935 23.1041 30.145C23.1041 30.4185 23.2995 30.744 23.8203 30.6398C26.1627 29.8512 28.1485 28.2557 29.4233 26.1383C30.6982 24.0209 31.179 21.5193 30.7801 19.0802C30.3811 16.641 29.1283 14.423 27.2453 12.8221C25.3622 11.2212 22.9716 10.3416 20.5 10.3403Z" fill="#12F7D6"/>
</svg>
