<svg width="40" height="40" viewBox="0 0 40 40" fill="none" xmlns="http://www.w3.org/2000/svg">
<rect width="40" height="40" rx="20" fill="#43454D"/>
<path fill-rule="evenodd" clip-rule="evenodd" d="M17.7404 15.5186C18.6739 15.0342 19.7363 14.8565 20.7766 15.0108C21.8378 15.1682 22.8202 15.6626 23.5788 16.4212C24.3373 17.1798 24.8318 18.1622 24.9891 19.2233C25.1434 20.2636 24.9657 21.3261 24.4813 22.2596C23.997 23.1931 23.2306 23.9501 22.2912 24.4229C21.3518 24.8957 20.2872 25.0603 19.2489 24.8932C18.2105 24.7261 17.2513 24.2359 16.5077 23.4923C15.764 22.7486 15.2738 21.7894 15.1067 20.7511C14.9396 19.7128 15.1042 18.6482 15.577 17.7088C16.0499 16.7694 16.8069 16.003 17.7404 15.5186ZM20.4833 16.9892C19.8591 16.8966 19.2216 17.0032 18.6615 17.2939C18.1014 17.5845 17.6472 18.0443 17.3635 18.608C17.0798 19.1716 16.9811 19.8103 17.0813 20.4333C17.1816 21.0563 17.4757 21.6319 17.9219 22.0781C18.3681 22.5242 18.9436 22.8184 19.5666 22.9186C20.1896 23.0189 20.8283 22.9201 21.392 22.6364C21.9556 22.3527 22.4155 21.8985 22.7061 21.3384C22.9967 20.7783 23.1033 20.1409 23.0108 19.5167C22.9164 18.88 22.6197 18.2905 22.1645 17.8354C21.7094 17.3803 21.12 17.0836 20.4833 16.9892Z" fill="#12F7D6"/>
<path d="M25.5 13.5C24.9477 13.5 24.5 13.9477 24.5 14.5C24.5 15.0523 24.9477 15.5 25.5 15.5H25.51C26.0623 15.5 26.51 15.0523 26.51 14.5C26.51 13.9477 26.0623 13.5 25.51 13.5H25.5Z" fill="#12F7D6"/>
<path fill-rule="evenodd" clip-rule="evenodd" d="M9 15C9 11.6863 11.6863 9 15 9H25C28.3137 9 31 11.6863 31 15V25C31 28.3137 28.3137 31 25 31H15C11.6863 31 9 28.3137 9 25V15ZM15 11C12.7909 11 11 12.7909 11 15V25C11 27.2091 12.7909 29 15 29H25C27.2091 29 29 27.2091 29 25V15C29 12.7909 27.2091 11 25 11H15Z" fill="#12F7D6"/>
</svg>
