<svg width="40" height="40" viewBox="0 0 40 40" fill="none" xmlns="http://www.w3.org/2000/svg">
<rect width="40" height="40" rx="20" fill="#43454D"/>
<path d="M28.5833 11C29.158 11 29.7091 11.2107 30.1154 11.5858C30.5217 11.9609 30.75 12.4696 30.75 13V27C30.75 27.5304 30.5217 28.0391 30.1154 28.4142C29.7091 28.7893 29.158 29 28.5833 29H13.4167C12.842 29 12.2909 28.7893 11.8846 28.4142C11.4783 28.0391 11.25 27.5304 11.25 27V13C11.25 12.4696 11.4783 11.9609 11.8846 11.5858C12.2909 11.2107 12.842 11 13.4167 11H28.5833ZM28.0417 26.5V21.2C28.0417 20.3354 27.6696 19.5062 27.0073 18.8948C26.3449 18.2835 25.4467 17.94 24.51 17.94C23.5892 17.94 22.5167 18.46 21.9967 19.24V18.13H18.9742V26.5H21.9967V21.57C21.9967 20.8 22.6683 20.17 23.5025 20.17C23.9047 20.17 24.2905 20.3175 24.5749 20.5801C24.8594 20.8426 25.0192 21.1987 25.0192 21.57V26.5H28.0417ZM15.4533 16.56C15.936 16.56 16.399 16.383 16.7403 16.0679C17.0816 15.7529 17.2733 15.3256 17.2733 14.88C17.2733 13.95 16.4608 13.19 15.4533 13.19C14.9678 13.19 14.5021 13.3681 14.1587 13.685C13.8154 14.0019 13.6225 14.4318 13.6225 14.88C13.6225 15.81 14.4458 16.56 15.4533 16.56ZM16.9592 26.5V18.13H13.9583V26.5H16.9592Z" fill="#12F7D6"/>
</svg>
